Source: Repo.The.Genetic.Opera.2008.1080p.BluRay.x264-SECTOR7

Subs: Danish, Dutch, English, Greek, Italian, Norwegian, Portuguese and Swedish.

Sample and Screens included.

General
Complete name                    : Repo-The Genetic Opera-720p MP4 AAC BRRip 2008-CC.mp4
Format                           : MPEG-4
Format profile                   : Base Media
Codec ID                         : isom
File size                        : 1.89 GiB
Duration                         : 1h 37mn
Overall bit rate                 : 2 770 Kbps
Encoded date                     : UTC 2012-03-11 07:06:54

Video
ID                               : 1
Format                           : AVC
Format/Info                      : Advanced Video Codec
Format profile                   : High@L3.1
Format settings, CABAC           : Yes
Format settings, ReFrames        : 5 frames
Codec ID                         : avc1
Codec ID/Info                    : Advanced Video Coding
Duration                         : 1h 37mn
Bit rate mode                    : Variable
Bit rate                         : 2 317 Kbps
Nominal bit rate                 : 2 350 Kbps
Maximum bit rate                 : 13.1 Mbps
Width                            : 1 280 pixels
Height                           : 688 pixels
Display aspect ratio             : 16:9
Frame rate mode                  : Variable
Frame rate                       : 23.976 fps
Minimum frame rate               : 15.873 fps
Maximum frame rate               : 24.390 fps
Resolution                       : 24 bits
Colorimetry                      : 4:2:0
Scan type                        : Progressive
Bits/(Pixel*Frame)               : 0.110
Stream size                      : 1.58 GiB (84%)
Writing library                  : x264 core 112

Audio
ID                               : 2
Format                           : AAC
Format/Info                      : Advanced Audio Codec
Format version                   : Version 4
Format profile                   : LC
Format settings, SBR             : No
Codec ID                         : 40
Duration                         : 1h 37mn
Bit rate mode                    : Variable
Bit rate                         : 448 Kbps
Maximum bit rate                 : 884 Kbps
Channel(s)                       : 6 channels
Channel positions                : Front: L C R, Rear: L R, LFE
Sampling rate                    : 48.0 KHz
Resolution                       : 16 bits
Stream size                      : 313 MiB (16%)
